# This file uses centimeters as units for non-parametric coordinates.

mtllib Bamboo_Shoot_001.mtl
g default
v 1.545086 -0.000000 -4.755283
v -4.045085 -0.000000 -2.938927
v -4.045085 -0.000000 2.938926
v 1.545085 -0.000000 4.755283
v 5.000000 -0.000000 0.000000
v 1.545086 100.000000 -4.755283
v -4.045085 100.000000 -2.938927
v -4.045085 100.000000 2.938926
v 1.545085 100.000000 4.755283
v 5.000000 100.000000 0.000000
v 1.545086 200.000000 -4.755283
v -4.045085 200.000000 -2.938927
v -4.045085 200.000000 2.938926
v 1.545085 200.000000 4.755283
v 5.000000 200.000000 0.000000
v 1.545086 300.000000 -4.755283
v -4.045085 300.000000 -2.938927
v -4.045085 300.000000 2.938926
v 1.545085 300.000000 4.755283
v 5.000000 300.000000 0.000000
v 1.545086 400.000000 -4.755283
v -4.045085 400.000000 -2.938927
v -4.045085 400.000000 2.938926
v 1.545085 400.000000 4.755283
v 5.000000 400.000000 0.000000
v 1.545086 500.000000 -4.755283
v -4.045085 500.000000 -2.938927
v -4.045085 500.000000 2.938926
v 1.545085 500.000000 4.755283
v 5.000000 500.000000 0.000000
v 0.000000 544.894531 0.000069
vt 0.098193 0.501523
vt 0.022530 0.501523
vt 0.022530 0.501523
vt 0.003776 0.501523
vt 0.041287 0.501523
vt 0.041287 0.501523
vt 0.060635 0.501523
vt 0.060635 0.501523
vt 0.079424 0.501523
vt 0.079424 0.501523
vt 0.022530 0.501524
vt 0.003776 0.501523
vt 0.041287 0.501523
vt 0.060635 0.501524
vt 0.079424 0.501524
vt 0.022530 0.501524
vt 0.003776 0.501523
vt 0.041287 0.501523
vt 0.060635 0.501524
vt 0.079424 0.501524
vt 0.022530 0.501524
vt 0.003776 0.501524
vt 0.041287 0.501524
vt 0.060635 0.501523
vt 0.079424 0.501523
vt 0.022530 0.501523
vt 0.003776 0.501523
vt 0.041287 0.501523
vt 0.060635 0.501523
vt 0.079424 0.501523
vt 0.051249 0.997591
vt 0.098193 0.997592
vt 0.098193 0.997592
vt 0.098193 0.997591
vt 0.098193 0.997591
vt 0.098193 0.997591
vt 0.003776 0.501523
vt 0.079424 0.997592
vt 0.003776 0.997592
vt 0.098193 0.501523
vt 0.060635 0.997592
vt 0.041287 0.997591
vt 0.022530 0.997591
vt 0.079424 0.997591
vt 0.003776 0.997592
vt 0.098193 0.501524
vt 0.060635 0.997592
vt 0.041287 0.997591
vt 0.022530 0.997592
vt 0.079424 0.997591
vt 0.003776 0.997592
vt 0.098193 0.501524
vt 0.060635 0.997592
vt 0.041287 0.997591
vt 0.022530 0.997591
vt 0.079424 0.997591
vt 0.003776 0.997592
vt 0.098193 0.501524
vt 0.060635 0.997592
vt 0.041287 0.997591
vt 0.022530 0.997592
vt 0.079424 0.997592
vt 0.003776 0.997591
vt 0.098193 0.501523
vt 0.060635 0.997592
vt 0.041287 0.997591
vt 0.022530 0.997591
vn 0.309017 0.000000 -0.951057
vn -0.809017 0.000000 -0.587785
vn -0.809017 0.000000 -0.587785
vn 0.309017 0.000000 -0.951057
vn -0.809017 0.000000 0.587785
vn -0.809017 0.000000 0.587785
vn 0.309017 0.000000 0.951057
vn 0.309017 0.000000 0.951057
vn 1.000000 0.000000 0.000000
vn 1.000000 0.000000 0.000000
vn -0.809017 0.000000 -0.587785
vn 0.309017 0.000000 -0.951057
vn -0.809017 0.000000 0.587785
vn 0.309017 0.000000 0.951057
vn 1.000000 0.000000 0.000000
vn -0.809017 0.000000 -0.587785
vn 0.309017 0.000000 -0.951057
vn -0.809017 0.000000 0.587785
vn 0.309017 0.000000 0.951057
vn 1.000000 0.000000 0.000000
vn -0.809017 0.000000 -0.587785
vn 0.309017 0.000000 -0.951057
vn -0.809017 0.000000 0.587785
vn 0.309017 0.000000 0.951057
vn 1.000000 0.000000 0.000000
vn -0.808860 0.019717 -0.587671
vn 0.308957 0.019717 -0.950872
vn -0.808860 0.019717 0.587671
vn 0.308957 0.019716 0.950872
vn 0.999806 0.019717 0.000000
vn -0.000006 1.000000 0.000007
s 1
g pCylinder1 Original
usemtl lambert2SG
f 1/37/1 2/2/2 7/67/3 6/63/4
f 2/2/2 3/5/5 8/66/6 7/67/3
f 3/5/5 4/7/7 9/65/8 8/66/6
f 4/7/7 5/9/9 10/62/10 9/65/8
f 5/9/9 1/1/1 6/36/4 10/62/10
f 6/4/4 7/3/3 12/61/11 11/57/12
f 7/3/3 8/6/6 13/60/13 12/61/11
f 8/6/6 9/8/8 14/59/14 13/60/13
f 9/8/8 10/10/10 15/56/15 14/59/14
f 10/10/10 6/64/4 11/35/12 15/56/15
f 11/12/12 12/11/11 17/55/16 16/51/17
f 12/11/11 13/13/13 18/54/18 17/55/16
f 13/13/13 14/14/14 19/53/19 18/54/18
f 14/14/14 15/15/15 20/50/20 19/53/19
f 15/15/15 11/58/12 16/34/17 20/50/20
f 16/17/17 17/16/16 22/49/21 21/45/22
f 17/16/16 18/18/18 23/48/23 22/49/21
f 18/18/18 19/19/19 24/47/24 23/48/23
f 19/19/19 20/20/20 25/44/25 24/47/24
f 20/20/20 16/52/17 21/33/22 25/44/25
f 21/22/22 22/21/21 27/43/26 26/39/27
f 22/21/21 23/23/23 28/42/28 27/43/26
f 23/23/23 24/24/24 29/41/29 28/42/28
f 24/24/24 25/25/25 30/38/30 29/41/29
f 25/25/25 21/46/22 26/32/27 30/38/30
f 26/27/27 27/26/26 31/31/31
f 27/26/26 28/28/28 31/31/31
f 28/28/28 29/29/29 31/31/31
f 29/29/29 30/30/30 31/31/31
f 30/30/30 26/40/27 31/31/31
